<mxfile host="app.diagrams.net" agent="Mozilla/5.0 (Windows NT 10.0; Win64; x64) AppleWebKit/537.36 (KHTML, like Gecko) Chrome/140.0.0.0 Safari/537.36" version="28.2.0">
  <diagram name="Page-1" id="0uHXvQXZobljOzGVFPQb">
    <mxGraphModel dx="2064" dy="1136" grid="1" gridSize="10" guides="1" tooltips="1" connect="1" arrows="1" fold="1" page="1" pageScale="1" pageWidth="850" pageHeight="1100" math="0" shadow="0">
      <root>
        <mxCell id="0" />
        <mxCell id="1" parent="0" />
        <mxCell id="ZAoUQ8ObvNrSKgbO1jp7-83" style="edgeStyle=orthogonalEdgeStyle;rounded=0;orthogonalLoop=1;jettySize=auto;html=1;exitX=0.869;exitY=0.981;exitDx=0;exitDy=0;entryX=0.169;entryY=1.007;entryDx=0;entryDy=0;shape=link;exitPerimeter=0;entryPerimeter=0;" parent="1" edge="1">
          <mxGeometry relative="1" as="geometry">
            <Array as="points">
              <mxPoint x="705.15" y="717.14" />
              <mxPoint x="1895.1499999999999" y="717.14" />
              <mxPoint x="1895.1499999999999" y="678.14" />
            </Array>
            <mxPoint x="705.05" y="671" as="sourcePoint" />
            <mxPoint x="1895.0499999999995" y="672.5600000000001" as="targetPoint" />
          </mxGeometry>
        </mxCell>
        <mxCell id="ZAoUQ8ObvNrSKgbO1jp7-85" value="VXLAN overlay network&lt;br&gt;MC group address 224.0.0.88&lt;br&gt;VNID 1000" style="edgeLabel;html=1;align=center;verticalAlign=middle;resizable=0;points=[];labelBackgroundColor=light-dark(#f5f5f5, #959595);labelBorderColor=default;spacing=10;" parent="ZAoUQ8ObvNrSKgbO1jp7-83" vertex="1" connectable="0">
          <mxGeometry x="0.005" relative="1" as="geometry">
            <mxPoint x="-222" y="-2" as="offset" />
          </mxGeometry>
        </mxCell>
        <mxCell id="ZAoUQ8ObvNrSKgbO1jp7-80" value="External network" style="sketch=0;points=[[0.5,0,0],[1,0.5,0],[0.5,1,0],[0,0.5,0],[0.145,0.145,0],[0.8555,0.145,0],[0.855,0.8555,0],[0.145,0.855,0]];verticalLabelPosition=bottom;html=1;verticalAlign=top;aspect=fixed;align=center;pointerEvents=1;shape=mxgraph.cisco19.rect;prIcon=router;fillColor=light-dark(#f5f5f5, #161616);strokeColor=#005073;" parent="1" vertex="1">
          <mxGeometry x="1163" y="755" width="110" height="110" as="geometry" />
        </mxCell>
        <mxCell id="tuS8vouwt-BeD0qK5on5-12" value="" style="group" vertex="1" connectable="0" parent="1">
          <mxGeometry x="315" y="235" width="550" height="440" as="geometry" />
        </mxCell>
        <mxCell id="ZAoUQ8ObvNrSKgbO1jp7-27" value="Node 1" style="rounded=0;whiteSpace=wrap;html=1;verticalAlign=top;fillColor=#f5f5f5;fontColor=#333333;strokeColor=#666666;" parent="tuS8vouwt-BeD0qK5on5-12" vertex="1">
          <mxGeometry width="550" height="440" as="geometry" />
        </mxCell>
        <mxCell id="ZAoUQ8ObvNrSKgbO1jp7-21" style="edgeStyle=orthogonalEdgeStyle;rounded=0;orthogonalLoop=1;jettySize=auto;html=1;exitX=0.5;exitY=1;exitDx=0;exitDy=0;endArrow=diamond;endFill=1;" parent="tuS8vouwt-BeD0qK5on5-12" source="ZAoUQ8ObvNrSKgbO1jp7-3" edge="1">
          <mxGeometry relative="1" as="geometry">
            <mxPoint x="55" y="260" as="targetPoint" />
          </mxGeometry>
        </mxCell>
        <mxCell id="ZAoUQ8ObvNrSKgbO1jp7-15" value="Network operator&lt;br&gt;bridge: gatewaybridge0" style="rounded=0;whiteSpace=wrap;html=1;fillColor=#dae8fc;strokeColor=#6c8ebf;align=center;verticalAlign=top;" parent="tuS8vouwt-BeD0qK5on5-12" vertex="1">
          <mxGeometry x="135" y="255" width="410" height="100" as="geometry" />
        </mxCell>
        <mxCell id="ZAoUQ8ObvNrSKgbO1jp7-26" value="" style="endArrow=none;dashed=1;html=1;dashPattern=1 3;strokeWidth=2;rounded=0;exitX=0.5;exitY=0;exitDx=0;exitDy=0;" parent="tuS8vouwt-BeD0qK5on5-12" source="ZAoUQ8ObvNrSKgbO1jp7-30" edge="1">
          <mxGeometry width="50" height="50" relative="1" as="geometry">
            <mxPoint x="52.56499999999994" y="279.1" as="sourcePoint" />
            <mxPoint x="55" y="260" as="targetPoint" />
          </mxGeometry>
        </mxCell>
        <mxCell id="ZAoUQ8ObvNrSKgbO1jp7-30" value="CNI plugin-specific traffic logic" style="rounded=0;whiteSpace=wrap;html=1;fillColor=#d5e8d4;strokeColor=#82b366;" parent="tuS8vouwt-BeD0qK5on5-12" vertex="1">
          <mxGeometry x="5" y="280" width="100" height="60" as="geometry" />
        </mxCell>
        <mxCell id="ZAoUQ8ObvNrSKgbO1jp7-31" value="Physical interface&lt;div&gt;&lt;br&gt;&lt;/div&gt;&lt;div&gt;&lt;br&gt;&lt;/div&gt;&lt;div&gt;eth: eth0&lt;/div&gt;" style="rounded=0;whiteSpace=wrap;html=1;fillColor=#bac8d3;strokeColor=#23445d;" parent="tuS8vouwt-BeD0qK5on5-12" vertex="1">
          <mxGeometry x="223" y="380" width="100" height="60" as="geometry" />
        </mxCell>
        <mxCell id="ZAoUQ8ObvNrSKgbO1jp7-33" value="Bridge CNI plugin&lt;br&gt;&lt;br&gt;&lt;br&gt;veth: vethDEF" style="rounded=0;whiteSpace=wrap;html=1;fillColor=#f8cecc;strokeColor=#b85450;" parent="tuS8vouwt-BeD0qK5on5-12" vertex="1">
          <mxGeometry x="445" y="255" width="100" height="60" as="geometry" />
        </mxCell>
        <mxCell id="ZAoUQ8ObvNrSKgbO1jp7-60" value="Network operator&lt;div&gt;&lt;br&gt;&lt;/div&gt;&lt;div&gt;vxlan:&lt;/div&gt;&lt;div&gt;gatewayvxlan0&lt;/div&gt;" style="rounded=0;whiteSpace=wrap;html=1;fillColor=#f8cecc;strokeColor=#b85450;" parent="tuS8vouwt-BeD0qK5on5-12" vertex="1">
          <mxGeometry x="290" y="295" width="100" height="60" as="geometry" />
        </mxCell>
        <mxCell id="ZAoUQ8ObvNrSKgbO1jp7-61" style="edgeStyle=orthogonalEdgeStyle;rounded=0;orthogonalLoop=1;jettySize=auto;html=1;exitX=0.5;exitY=1;exitDx=0;exitDy=0;entryX=1;entryY=0.5;entryDx=0;entryDy=0;endArrow=oval;endFill=1;startArrow=oval;startFill=1;" parent="tuS8vouwt-BeD0qK5on5-12" source="ZAoUQ8ObvNrSKgbO1jp7-60" target="ZAoUQ8ObvNrSKgbO1jp7-31" edge="1">
          <mxGeometry relative="1" as="geometry">
            <Array as="points">
              <mxPoint x="340" y="410" />
            </Array>
          </mxGeometry>
        </mxCell>
        <mxCell id="ZAoUQ8ObvNrSKgbO1jp7-62" style="edgeStyle=orthogonalEdgeStyle;rounded=0;orthogonalLoop=1;jettySize=auto;html=1;exitX=0.5;exitY=1;exitDx=0;exitDy=0;entryX=0;entryY=0.5;entryDx=0;entryDy=0;endArrow=oval;endFill=1;startArrow=oval;startFill=1;" parent="tuS8vouwt-BeD0qK5on5-12" source="ZAoUQ8ObvNrSKgbO1jp7-30" target="ZAoUQ8ObvNrSKgbO1jp7-31" edge="1">
          <mxGeometry relative="1" as="geometry" />
        </mxCell>
        <mxCell id="tuS8vouwt-BeD0qK5on5-1" value="" style="group" vertex="1" connectable="0" parent="tuS8vouwt-BeD0qK5on5-12">
          <mxGeometry x="10" y="30" width="255" height="190" as="geometry" />
        </mxCell>
        <mxCell id="ZAoUQ8ObvNrSKgbO1jp7-1" value="Client Pod 1" style="rounded=0;whiteSpace=wrap;html=1;verticalAlign=top;fillColor=#fff2cc;strokeColor=#d6b656;" parent="tuS8vouwt-BeD0qK5on5-1" vertex="1">
          <mxGeometry width="255" height="190" as="geometry" />
        </mxCell>
        <mxCell id="ZAoUQ8ObvNrSKgbO1jp7-3" value="Primary CNI plugin&lt;br&gt;&lt;br&gt;eth0" style="rounded=0;whiteSpace=wrap;html=1;fillColor=#d5e8d4;strokeColor=#82b366;" parent="tuS8vouwt-BeD0qK5on5-1" vertex="1">
          <mxGeometry x="10" y="130" width="100" height="60" as="geometry" />
        </mxCell>
        <mxCell id="ZAoUQ8ObvNrSKgbO1jp7-4" value="Bridge CNI plugin&lt;br&gt;&lt;br&gt;192.168.50.64/24&lt;br&gt;veth: net1" style="rounded=0;whiteSpace=wrap;html=1;fillColor=#f8cecc;strokeColor=#b85450;" parent="tuS8vouwt-BeD0qK5on5-1" vertex="1">
          <mxGeometry x="140" y="130" width="100" height="60" as="geometry" />
        </mxCell>
        <mxCell id="ZAoUQ8ObvNrSKgbO1jp7-5" value="QBT" style="rounded=0;whiteSpace=wrap;html=1;fillColor=#e1d5e7;strokeColor=#9673a6;" parent="tuS8vouwt-BeD0qK5on5-1" vertex="1">
          <mxGeometry x="10" y="30" width="230" height="60" as="geometry" />
        </mxCell>
        <mxCell id="ZAoUQ8ObvNrSKgbO1jp7-6" style="edgeStyle=orthogonalEdgeStyle;rounded=0;orthogonalLoop=1;jettySize=auto;html=1;exitX=0.5;exitY=1;exitDx=0;exitDy=0;entryX=0.5;entryY=0;entryDx=0;entryDy=0;endArrow=oval;endFill=1;startArrow=oval;startFill=1;" parent="tuS8vouwt-BeD0qK5on5-1" source="ZAoUQ8ObvNrSKgbO1jp7-5" target="ZAoUQ8ObvNrSKgbO1jp7-3" edge="1">
          <mxGeometry relative="1" as="geometry" />
        </mxCell>
        <mxCell id="ZAoUQ8ObvNrSKgbO1jp7-7" style="edgeStyle=orthogonalEdgeStyle;rounded=0;orthogonalLoop=1;jettySize=auto;html=1;exitX=0.5;exitY=1;exitDx=0;exitDy=0;entryX=0.5;entryY=0;entryDx=0;entryDy=0;endArrow=oval;endFill=1;" parent="tuS8vouwt-BeD0qK5on5-1" source="ZAoUQ8ObvNrSKgbO1jp7-5" target="ZAoUQ8ObvNrSKgbO1jp7-4" edge="1">
          <mxGeometry relative="1" as="geometry" />
        </mxCell>
        <mxCell id="tuS8vouwt-BeD0qK5on5-2" value="" style="group" vertex="1" connectable="0" parent="tuS8vouwt-BeD0qK5on5-12">
          <mxGeometry x="280" y="30" width="255" height="190" as="geometry" />
        </mxCell>
        <mxCell id="tuS8vouwt-BeD0qK5on5-3" value="Client Pod 2" style="rounded=0;whiteSpace=wrap;html=1;verticalAlign=top;fillColor=#fff2cc;strokeColor=#d6b656;" vertex="1" parent="tuS8vouwt-BeD0qK5on5-2">
          <mxGeometry width="255" height="190" as="geometry" />
        </mxCell>
        <mxCell id="tuS8vouwt-BeD0qK5on5-4" value="Primary CNI plugin&lt;br&gt;&lt;br&gt;eth0" style="rounded=0;whiteSpace=wrap;html=1;fillColor=#d5e8d4;strokeColor=#82b366;" vertex="1" parent="tuS8vouwt-BeD0qK5on5-2">
          <mxGeometry x="10" y="130" width="100" height="60" as="geometry" />
        </mxCell>
        <mxCell id="tuS8vouwt-BeD0qK5on5-5" value="Bridge CNI plugin&lt;br&gt;&lt;br&gt;192.168.50.65/24&lt;br&gt;veth: net1" style="rounded=0;whiteSpace=wrap;html=1;fillColor=#f8cecc;strokeColor=#b85450;" vertex="1" parent="tuS8vouwt-BeD0qK5on5-2">
          <mxGeometry x="140" y="130" width="100" height="60" as="geometry" />
        </mxCell>
        <mxCell id="tuS8vouwt-BeD0qK5on5-6" value="NZBGet" style="rounded=0;whiteSpace=wrap;html=1;fillColor=#e1d5e7;strokeColor=#9673a6;" vertex="1" parent="tuS8vouwt-BeD0qK5on5-2">
          <mxGeometry x="10" y="30" width="230" height="60" as="geometry" />
        </mxCell>
        <mxCell id="tuS8vouwt-BeD0qK5on5-7" style="edgeStyle=orthogonalEdgeStyle;rounded=0;orthogonalLoop=1;jettySize=auto;html=1;exitX=0.5;exitY=1;exitDx=0;exitDy=0;entryX=0.5;entryY=0;entryDx=0;entryDy=0;endArrow=oval;endFill=1;startArrow=oval;startFill=1;" edge="1" parent="tuS8vouwt-BeD0qK5on5-2" source="tuS8vouwt-BeD0qK5on5-6" target="tuS8vouwt-BeD0qK5on5-4">
          <mxGeometry relative="1" as="geometry" />
        </mxCell>
        <mxCell id="tuS8vouwt-BeD0qK5on5-8" style="edgeStyle=orthogonalEdgeStyle;rounded=0;orthogonalLoop=1;jettySize=auto;html=1;exitX=0.5;exitY=1;exitDx=0;exitDy=0;entryX=0.5;entryY=0;entryDx=0;entryDy=0;endArrow=oval;endFill=1;" edge="1" parent="tuS8vouwt-BeD0qK5on5-2" source="tuS8vouwt-BeD0qK5on5-6" target="tuS8vouwt-BeD0qK5on5-5">
          <mxGeometry relative="1" as="geometry" />
        </mxCell>
        <mxCell id="tuS8vouwt-BeD0qK5on5-11" style="edgeStyle=orthogonalEdgeStyle;rounded=0;orthogonalLoop=1;jettySize=auto;html=1;exitX=0.5;exitY=1;exitDx=0;exitDy=0;endArrow=none;endFill=0;jumpStyle=gap;" edge="1" parent="tuS8vouwt-BeD0qK5on5-2" source="tuS8vouwt-BeD0qK5on5-4">
          <mxGeometry relative="1" as="geometry">
            <mxPoint x="-220" y="210" as="targetPoint" />
            <Array as="points">
              <mxPoint x="60" y="210" />
            </Array>
          </mxGeometry>
        </mxCell>
        <mxCell id="tuS8vouwt-BeD0qK5on5-9" value="Bridge CNI plugin&lt;br&gt;&lt;br&gt;&lt;br&gt;veth: vethABC" style="rounded=0;whiteSpace=wrap;html=1;fillColor=#f8cecc;strokeColor=#b85450;" vertex="1" parent="tuS8vouwt-BeD0qK5on5-12">
          <mxGeometry x="135" y="255" width="100" height="60" as="geometry" />
        </mxCell>
        <mxCell id="tuS8vouwt-BeD0qK5on5-10" style="edgeStyle=orthogonalEdgeStyle;rounded=0;orthogonalLoop=1;jettySize=auto;html=1;exitX=0.5;exitY=1;exitDx=0;exitDy=0;endArrow=oval;endFill=1;startArrow=oval;startFill=1;entryX=0.5;entryY=0;entryDx=0;entryDy=0;" edge="1" parent="tuS8vouwt-BeD0qK5on5-12" source="tuS8vouwt-BeD0qK5on5-5" target="ZAoUQ8ObvNrSKgbO1jp7-33">
          <mxGeometry relative="1" as="geometry">
            <mxPoint x="457" y="225" as="sourcePoint" />
            <mxPoint x="440" y="260" as="targetPoint" />
            <Array as="points">
              <mxPoint x="470" y="235" />
              <mxPoint x="495" y="235" />
            </Array>
          </mxGeometry>
        </mxCell>
        <mxCell id="ZAoUQ8ObvNrSKgbO1jp7-17" style="edgeStyle=orthogonalEdgeStyle;rounded=0;orthogonalLoop=1;jettySize=auto;html=1;exitX=0.5;exitY=1;exitDx=0;exitDy=0;endArrow=oval;endFill=1;startArrow=oval;startFill=1;entryX=0.475;entryY=-0.005;entryDx=0;entryDy=0;entryPerimeter=0;jumpStyle=arc;" parent="tuS8vouwt-BeD0qK5on5-12" source="ZAoUQ8ObvNrSKgbO1jp7-4" target="tuS8vouwt-BeD0qK5on5-9" edge="1">
          <mxGeometry relative="1" as="geometry">
            <mxPoint x="184.8" y="220" as="sourcePoint" />
            <mxPoint x="184.8" y="280" as="targetPoint" />
            <Array as="points">
              <mxPoint x="200" y="235" />
              <mxPoint x="183" y="235" />
            </Array>
          </mxGeometry>
        </mxCell>
        <mxCell id="tuS8vouwt-BeD0qK5on5-13" value="" style="group" vertex="1" connectable="0" parent="1">
          <mxGeometry x="945" y="235" width="550" height="440" as="geometry" />
        </mxCell>
        <mxCell id="tuS8vouwt-BeD0qK5on5-117" style="edgeStyle=orthogonalEdgeStyle;rounded=0;orthogonalLoop=1;jettySize=auto;html=1;exitX=0.25;exitY=1;exitDx=0;exitDy=0;shape=link;" edge="1" parent="tuS8vouwt-BeD0qK5on5-13" source="tuS8vouwt-BeD0qK5on5-19">
          <mxGeometry relative="1" as="geometry">
            <mxPoint x="248" y="480" as="targetPoint" />
          </mxGeometry>
        </mxCell>
        <mxCell id="tuS8vouwt-BeD0qK5on5-14" value="Node 2" style="rounded=0;whiteSpace=wrap;html=1;verticalAlign=top;fillColor=#f5f5f5;fontColor=#333333;strokeColor=#666666;" vertex="1" parent="tuS8vouwt-BeD0qK5on5-13">
          <mxGeometry width="550" height="440" as="geometry" />
        </mxCell>
        <mxCell id="tuS8vouwt-BeD0qK5on5-15" style="edgeStyle=orthogonalEdgeStyle;rounded=0;orthogonalLoop=1;jettySize=auto;html=1;exitX=0.5;exitY=1;exitDx=0;exitDy=0;endArrow=diamond;endFill=1;" edge="1" parent="tuS8vouwt-BeD0qK5on5-13" source="tuS8vouwt-BeD0qK5on5-26">
          <mxGeometry relative="1" as="geometry">
            <mxPoint x="55" y="260" as="targetPoint" />
          </mxGeometry>
        </mxCell>
        <mxCell id="tuS8vouwt-BeD0qK5on5-16" value="Network operator&lt;br&gt;bridge: gatewaybridge0" style="rounded=0;whiteSpace=wrap;html=1;fillColor=#dae8fc;strokeColor=#6c8ebf;align=center;verticalAlign=top;" vertex="1" parent="tuS8vouwt-BeD0qK5on5-13">
          <mxGeometry x="135" y="255" width="410" height="100" as="geometry" />
        </mxCell>
        <mxCell id="tuS8vouwt-BeD0qK5on5-17" value="" style="endArrow=none;dashed=1;html=1;dashPattern=1 3;strokeWidth=2;rounded=0;exitX=0.5;exitY=0;exitDx=0;exitDy=0;" edge="1" parent="tuS8vouwt-BeD0qK5on5-13" source="tuS8vouwt-BeD0qK5on5-18">
          <mxGeometry width="50" height="50" relative="1" as="geometry">
            <mxPoint x="52.56499999999994" y="279.1" as="sourcePoint" />
            <mxPoint x="55" y="260" as="targetPoint" />
          </mxGeometry>
        </mxCell>
        <mxCell id="tuS8vouwt-BeD0qK5on5-18" value="CNI plugin-specific traffic logic" style="rounded=0;whiteSpace=wrap;html=1;fillColor=#d5e8d4;strokeColor=#82b366;" vertex="1" parent="tuS8vouwt-BeD0qK5on5-13">
          <mxGeometry x="5" y="280" width="100" height="60" as="geometry" />
        </mxCell>
        <mxCell id="tuS8vouwt-BeD0qK5on5-19" value="Physical interface&lt;div&gt;&lt;br&gt;&lt;/div&gt;&lt;div&gt;&lt;br&gt;&lt;/div&gt;&lt;div&gt;eth: eth0&lt;/div&gt;" style="rounded=0;whiteSpace=wrap;html=1;fillColor=#bac8d3;strokeColor=#23445d;" vertex="1" parent="tuS8vouwt-BeD0qK5on5-13">
          <mxGeometry x="223" y="380" width="100" height="60" as="geometry" />
        </mxCell>
        <mxCell id="tuS8vouwt-BeD0qK5on5-20" value="Bridge CNI plugin&lt;br&gt;&lt;br&gt;&lt;br&gt;veth: vethDEF" style="rounded=0;whiteSpace=wrap;html=1;fillColor=#f8cecc;strokeColor=#b85450;" vertex="1" parent="tuS8vouwt-BeD0qK5on5-13">
          <mxGeometry x="445" y="255" width="100" height="60" as="geometry" />
        </mxCell>
        <mxCell id="tuS8vouwt-BeD0qK5on5-21" value="Network operator&lt;div&gt;&lt;br&gt;&lt;/div&gt;&lt;div&gt;vxlan:&lt;/div&gt;&lt;div&gt;gatewayvxlan0&lt;/div&gt;" style="rounded=0;whiteSpace=wrap;html=1;fillColor=#f8cecc;strokeColor=#b85450;" vertex="1" parent="tuS8vouwt-BeD0qK5on5-13">
          <mxGeometry x="290" y="295" width="100" height="60" as="geometry" />
        </mxCell>
        <mxCell id="tuS8vouwt-BeD0qK5on5-22" style="edgeStyle=orthogonalEdgeStyle;rounded=0;orthogonalLoop=1;jettySize=auto;html=1;exitX=0.5;exitY=1;exitDx=0;exitDy=0;entryX=1;entryY=0.5;entryDx=0;entryDy=0;endArrow=oval;endFill=1;startArrow=oval;startFill=1;" edge="1" parent="tuS8vouwt-BeD0qK5on5-13" source="tuS8vouwt-BeD0qK5on5-21" target="tuS8vouwt-BeD0qK5on5-19">
          <mxGeometry relative="1" as="geometry">
            <Array as="points">
              <mxPoint x="340" y="410" />
            </Array>
          </mxGeometry>
        </mxCell>
        <mxCell id="tuS8vouwt-BeD0qK5on5-23" style="edgeStyle=orthogonalEdgeStyle;rounded=0;orthogonalLoop=1;jettySize=auto;html=1;exitX=0.5;exitY=1;exitDx=0;exitDy=0;entryX=0;entryY=0.5;entryDx=0;entryDy=0;endArrow=oval;endFill=1;startArrow=oval;startFill=1;" edge="1" parent="tuS8vouwt-BeD0qK5on5-13" source="tuS8vouwt-BeD0qK5on5-18" target="tuS8vouwt-BeD0qK5on5-19">
          <mxGeometry relative="1" as="geometry" />
        </mxCell>
        <mxCell id="tuS8vouwt-BeD0qK5on5-24" value="" style="group" vertex="1" connectable="0" parent="tuS8vouwt-BeD0qK5on5-13">
          <mxGeometry x="10" y="30" width="255" height="190" as="geometry" />
        </mxCell>
        <mxCell id="tuS8vouwt-BeD0qK5on5-25" value="Router Pod 1" style="rounded=0;whiteSpace=wrap;html=1;verticalAlign=top;fillColor=#fff2cc;strokeColor=#d6b656;" vertex="1" parent="tuS8vouwt-BeD0qK5on5-24">
          <mxGeometry width="255" height="190" as="geometry" />
        </mxCell>
        <mxCell id="tuS8vouwt-BeD0qK5on5-26" value="Primary CNI plugin&lt;br&gt;&lt;br&gt;eth0" style="rounded=0;whiteSpace=wrap;html=1;fillColor=#d5e8d4;strokeColor=#82b366;" vertex="1" parent="tuS8vouwt-BeD0qK5on5-24">
          <mxGeometry x="10" y="130" width="100" height="60" as="geometry" />
        </mxCell>
        <mxCell id="tuS8vouwt-BeD0qK5on5-27" value="Bridge CNI plugin&lt;br&gt;&lt;br&gt;192.168.50.64/24&lt;br&gt;veth: net1" style="rounded=0;whiteSpace=wrap;html=1;fillColor=#f8cecc;strokeColor=#b85450;" vertex="1" parent="tuS8vouwt-BeD0qK5on5-24">
          <mxGeometry x="140" y="130" width="100" height="60" as="geometry" />
        </mxCell>
        <mxCell id="tuS8vouwt-BeD0qK5on5-28" value="keepalived" style="rounded=0;whiteSpace=wrap;html=1;fillColor=#e1d5e7;strokeColor=#9673a6;" vertex="1" parent="tuS8vouwt-BeD0qK5on5-24">
          <mxGeometry x="10" y="30" width="100" height="60" as="geometry" />
        </mxCell>
        <mxCell id="tuS8vouwt-BeD0qK5on5-29" style="edgeStyle=orthogonalEdgeStyle;rounded=0;orthogonalLoop=1;jettySize=auto;html=1;exitX=0.5;exitY=1;exitDx=0;exitDy=0;entryX=0.5;entryY=0;entryDx=0;entryDy=0;endArrow=oval;endFill=1;startArrow=oval;startFill=1;" edge="1" parent="tuS8vouwt-BeD0qK5on5-24" source="tuS8vouwt-BeD0qK5on5-28" target="tuS8vouwt-BeD0qK5on5-26">
          <mxGeometry relative="1" as="geometry" />
        </mxCell>
        <mxCell id="tuS8vouwt-BeD0qK5on5-30" style="edgeStyle=orthogonalEdgeStyle;rounded=0;orthogonalLoop=1;jettySize=auto;html=1;exitX=0.5;exitY=1;exitDx=0;exitDy=0;entryX=0.5;entryY=0;entryDx=0;entryDy=0;endArrow=oval;endFill=1;" edge="1" parent="tuS8vouwt-BeD0qK5on5-24" source="tuS8vouwt-BeD0qK5on5-28" target="tuS8vouwt-BeD0qK5on5-27">
          <mxGeometry relative="1" as="geometry" />
        </mxCell>
        <mxCell id="tuS8vouwt-BeD0qK5on5-43" style="edgeStyle=orthogonalEdgeStyle;rounded=0;orthogonalLoop=1;jettySize=auto;html=1;exitX=0.5;exitY=1;exitDx=0;exitDy=0;endArrow=none;endFill=0;" edge="1" parent="tuS8vouwt-BeD0qK5on5-24" source="tuS8vouwt-BeD0qK5on5-42">
          <mxGeometry relative="1" as="geometry">
            <mxPoint x="190" y="110" as="targetPoint" />
          </mxGeometry>
        </mxCell>
        <mxCell id="tuS8vouwt-BeD0qK5on5-42" value="conntrackd" style="rounded=0;whiteSpace=wrap;html=1;fillColor=#e1d5e7;strokeColor=#9673a6;" vertex="1" parent="tuS8vouwt-BeD0qK5on5-24">
          <mxGeometry x="140" y="30" width="100" height="60" as="geometry" />
        </mxCell>
        <mxCell id="tuS8vouwt-BeD0qK5on5-39" value="Bridge CNI plugin&lt;br&gt;&lt;br&gt;&lt;br&gt;veth: vethABC" style="rounded=0;whiteSpace=wrap;html=1;fillColor=#f8cecc;strokeColor=#b85450;" vertex="1" parent="tuS8vouwt-BeD0qK5on5-13">
          <mxGeometry x="135" y="255" width="100" height="60" as="geometry" />
        </mxCell>
        <mxCell id="tuS8vouwt-BeD0qK5on5-44" value="" style="group" vertex="1" connectable="0" parent="tuS8vouwt-BeD0qK5on5-13">
          <mxGeometry x="280" y="30" width="255" height="190" as="geometry" />
        </mxCell>
        <mxCell id="tuS8vouwt-BeD0qK5on5-45" value="Router Pod 2" style="rounded=0;whiteSpace=wrap;html=1;verticalAlign=top;fillColor=#fff2cc;strokeColor=#d6b656;" vertex="1" parent="tuS8vouwt-BeD0qK5on5-44">
          <mxGeometry width="255" height="190" as="geometry" />
        </mxCell>
        <mxCell id="tuS8vouwt-BeD0qK5on5-46" value="Primary CNI plugin&lt;br&gt;&lt;br&gt;eth0" style="rounded=0;whiteSpace=wrap;html=1;fillColor=#d5e8d4;strokeColor=#82b366;" vertex="1" parent="tuS8vouwt-BeD0qK5on5-44">
          <mxGeometry x="10" y="130" width="100" height="60" as="geometry" />
        </mxCell>
        <mxCell id="tuS8vouwt-BeD0qK5on5-47" value="Bridge CNI plugin&lt;br&gt;&lt;br&gt;192.168.50.64/24&lt;br&gt;veth: net1" style="rounded=0;whiteSpace=wrap;html=1;fillColor=#f8cecc;strokeColor=#b85450;" vertex="1" parent="tuS8vouwt-BeD0qK5on5-44">
          <mxGeometry x="140" y="130" width="100" height="60" as="geometry" />
        </mxCell>
        <mxCell id="tuS8vouwt-BeD0qK5on5-48" value="keepalived" style="rounded=0;whiteSpace=wrap;html=1;fillColor=#e1d5e7;strokeColor=#9673a6;" vertex="1" parent="tuS8vouwt-BeD0qK5on5-44">
          <mxGeometry x="10" y="30" width="100" height="60" as="geometry" />
        </mxCell>
        <mxCell id="tuS8vouwt-BeD0qK5on5-49" style="edgeStyle=orthogonalEdgeStyle;rounded=0;orthogonalLoop=1;jettySize=auto;html=1;exitX=0.5;exitY=1;exitDx=0;exitDy=0;entryX=0.5;entryY=0;entryDx=0;entryDy=0;endArrow=oval;endFill=1;startArrow=oval;startFill=1;" edge="1" parent="tuS8vouwt-BeD0qK5on5-44" source="tuS8vouwt-BeD0qK5on5-48" target="tuS8vouwt-BeD0qK5on5-46">
          <mxGeometry relative="1" as="geometry" />
        </mxCell>
        <mxCell id="tuS8vouwt-BeD0qK5on5-50" style="edgeStyle=orthogonalEdgeStyle;rounded=0;orthogonalLoop=1;jettySize=auto;html=1;exitX=0.5;exitY=1;exitDx=0;exitDy=0;entryX=0.5;entryY=0;entryDx=0;entryDy=0;endArrow=oval;endFill=1;" edge="1" parent="tuS8vouwt-BeD0qK5on5-44" source="tuS8vouwt-BeD0qK5on5-48" target="tuS8vouwt-BeD0qK5on5-47">
          <mxGeometry relative="1" as="geometry" />
        </mxCell>
        <mxCell id="tuS8vouwt-BeD0qK5on5-51" style="edgeStyle=orthogonalEdgeStyle;rounded=0;orthogonalLoop=1;jettySize=auto;html=1;exitX=0.5;exitY=1;exitDx=0;exitDy=0;endArrow=none;endFill=0;" edge="1" parent="tuS8vouwt-BeD0qK5on5-44" source="tuS8vouwt-BeD0qK5on5-52">
          <mxGeometry relative="1" as="geometry">
            <mxPoint x="190" y="110" as="targetPoint" />
          </mxGeometry>
        </mxCell>
        <mxCell id="tuS8vouwt-BeD0qK5on5-52" value="conntrackd" style="rounded=0;whiteSpace=wrap;html=1;fillColor=#e1d5e7;strokeColor=#9673a6;" vertex="1" parent="tuS8vouwt-BeD0qK5on5-44">
          <mxGeometry x="140" y="30" width="100" height="60" as="geometry" />
        </mxCell>
        <mxCell id="tuS8vouwt-BeD0qK5on5-40" style="edgeStyle=orthogonalEdgeStyle;rounded=0;orthogonalLoop=1;jettySize=auto;html=1;exitX=0.5;exitY=1;exitDx=0;exitDy=0;endArrow=oval;endFill=1;startArrow=oval;startFill=1;entryX=0.5;entryY=0;entryDx=0;entryDy=0;" edge="1" parent="tuS8vouwt-BeD0qK5on5-13" target="tuS8vouwt-BeD0qK5on5-20">
          <mxGeometry relative="1" as="geometry">
            <mxPoint x="470" y="220" as="sourcePoint" />
            <mxPoint x="440" y="260" as="targetPoint" />
            <Array as="points">
              <mxPoint x="470" y="235" />
              <mxPoint x="495" y="235" />
            </Array>
          </mxGeometry>
        </mxCell>
        <mxCell id="tuS8vouwt-BeD0qK5on5-53" style="edgeStyle=orthogonalEdgeStyle;rounded=0;orthogonalLoop=1;jettySize=auto;html=1;exitX=0.5;exitY=1;exitDx=0;exitDy=0;endArrow=none;endFill=0;jumpStyle=none;" edge="1" parent="tuS8vouwt-BeD0qK5on5-13">
          <mxGeometry relative="1" as="geometry">
            <mxPoint x="60" y="240" as="targetPoint" />
            <mxPoint x="340" y="220" as="sourcePoint" />
            <Array as="points">
              <mxPoint x="340" y="240" />
            </Array>
          </mxGeometry>
        </mxCell>
        <mxCell id="tuS8vouwt-BeD0qK5on5-41" style="edgeStyle=orthogonalEdgeStyle;rounded=0;orthogonalLoop=1;jettySize=auto;html=1;exitX=0.5;exitY=1;exitDx=0;exitDy=0;endArrow=oval;endFill=1;startArrow=oval;startFill=1;entryX=0.475;entryY=-0.005;entryDx=0;entryDy=0;entryPerimeter=0;jumpStyle=arc;" edge="1" parent="tuS8vouwt-BeD0qK5on5-13" source="tuS8vouwt-BeD0qK5on5-27" target="tuS8vouwt-BeD0qK5on5-39">
          <mxGeometry relative="1" as="geometry">
            <mxPoint x="184.8" y="220" as="sourcePoint" />
            <mxPoint x="184.8" y="280" as="targetPoint" />
            <Array as="points">
              <mxPoint x="200" y="235" />
              <mxPoint x="183" y="235" />
            </Array>
          </mxGeometry>
        </mxCell>
        <mxCell id="tuS8vouwt-BeD0qK5on5-87" value="" style="group" vertex="1" connectable="0" parent="1">
          <mxGeometry x="1575" y="235" width="550" height="440" as="geometry" />
        </mxCell>
        <mxCell id="tuS8vouwt-BeD0qK5on5-88" value="Node 3" style="rounded=0;whiteSpace=wrap;html=1;verticalAlign=top;fillColor=#f5f5f5;fontColor=#333333;strokeColor=#666666;" vertex="1" parent="tuS8vouwt-BeD0qK5on5-87">
          <mxGeometry width="550" height="440" as="geometry" />
        </mxCell>
        <mxCell id="tuS8vouwt-BeD0qK5on5-89" style="edgeStyle=orthogonalEdgeStyle;rounded=0;orthogonalLoop=1;jettySize=auto;html=1;exitX=0.5;exitY=1;exitDx=0;exitDy=0;endArrow=diamond;endFill=1;" edge="1" parent="tuS8vouwt-BeD0qK5on5-87" source="tuS8vouwt-BeD0qK5on5-100">
          <mxGeometry relative="1" as="geometry">
            <mxPoint x="55" y="260" as="targetPoint" />
          </mxGeometry>
        </mxCell>
        <mxCell id="tuS8vouwt-BeD0qK5on5-90" value="Network operator&lt;br&gt;bridge: gatewaybridge0" style="rounded=0;whiteSpace=wrap;html=1;fillColor=#dae8fc;strokeColor=#6c8ebf;align=center;verticalAlign=top;" vertex="1" parent="tuS8vouwt-BeD0qK5on5-87">
          <mxGeometry x="135" y="255" width="410" height="100" as="geometry" />
        </mxCell>
        <mxCell id="tuS8vouwt-BeD0qK5on5-91" value="" style="endArrow=none;dashed=1;html=1;dashPattern=1 3;strokeWidth=2;rounded=0;exitX=0.5;exitY=0;exitDx=0;exitDy=0;" edge="1" parent="tuS8vouwt-BeD0qK5on5-87" source="tuS8vouwt-BeD0qK5on5-92">
          <mxGeometry width="50" height="50" relative="1" as="geometry">
            <mxPoint x="52.56499999999994" y="279.1" as="sourcePoint" />
            <mxPoint x="55" y="260" as="targetPoint" />
          </mxGeometry>
        </mxCell>
        <mxCell id="tuS8vouwt-BeD0qK5on5-92" value="CNI plugin-specific traffic logic" style="rounded=0;whiteSpace=wrap;html=1;fillColor=#d5e8d4;strokeColor=#82b366;" vertex="1" parent="tuS8vouwt-BeD0qK5on5-87">
          <mxGeometry x="5" y="280" width="100" height="60" as="geometry" />
        </mxCell>
        <mxCell id="tuS8vouwt-BeD0qK5on5-93" value="Physical interface&lt;div&gt;&lt;br&gt;&lt;/div&gt;&lt;div&gt;&lt;br&gt;&lt;/div&gt;&lt;div&gt;eth: eth0&lt;/div&gt;" style="rounded=0;whiteSpace=wrap;html=1;fillColor=#bac8d3;strokeColor=#23445d;" vertex="1" parent="tuS8vouwt-BeD0qK5on5-87">
          <mxGeometry x="223" y="380" width="100" height="60" as="geometry" />
        </mxCell>
        <mxCell id="tuS8vouwt-BeD0qK5on5-94" value="Bridge CNI plugin&lt;br&gt;&lt;br&gt;&lt;br&gt;veth: vethDEF" style="rounded=0;whiteSpace=wrap;html=1;fillColor=#f8cecc;strokeColor=#b85450;" vertex="1" parent="tuS8vouwt-BeD0qK5on5-87">
          <mxGeometry x="445" y="255" width="100" height="60" as="geometry" />
        </mxCell>
        <mxCell id="tuS8vouwt-BeD0qK5on5-95" value="Network operator&lt;div&gt;&lt;br&gt;&lt;/div&gt;&lt;div&gt;vxlan:&lt;/div&gt;&lt;div&gt;gatewayvxlan0&lt;/div&gt;" style="rounded=0;whiteSpace=wrap;html=1;fillColor=#f8cecc;strokeColor=#b85450;" vertex="1" parent="tuS8vouwt-BeD0qK5on5-87">
          <mxGeometry x="290" y="295" width="100" height="60" as="geometry" />
        </mxCell>
        <mxCell id="tuS8vouwt-BeD0qK5on5-96" style="edgeStyle=orthogonalEdgeStyle;rounded=0;orthogonalLoop=1;jettySize=auto;html=1;exitX=0.5;exitY=1;exitDx=0;exitDy=0;entryX=1;entryY=0.5;entryDx=0;entryDy=0;endArrow=oval;endFill=1;startArrow=oval;startFill=1;" edge="1" parent="tuS8vouwt-BeD0qK5on5-87" source="tuS8vouwt-BeD0qK5on5-95" target="tuS8vouwt-BeD0qK5on5-93">
          <mxGeometry relative="1" as="geometry">
            <Array as="points">
              <mxPoint x="340" y="410" />
            </Array>
          </mxGeometry>
        </mxCell>
        <mxCell id="tuS8vouwt-BeD0qK5on5-97" style="edgeStyle=orthogonalEdgeStyle;rounded=0;orthogonalLoop=1;jettySize=auto;html=1;exitX=0.5;exitY=1;exitDx=0;exitDy=0;entryX=0;entryY=0.5;entryDx=0;entryDy=0;endArrow=oval;endFill=1;startArrow=oval;startFill=1;" edge="1" parent="tuS8vouwt-BeD0qK5on5-87" source="tuS8vouwt-BeD0qK5on5-92" target="tuS8vouwt-BeD0qK5on5-93">
          <mxGeometry relative="1" as="geometry" />
        </mxCell>
        <mxCell id="tuS8vouwt-BeD0qK5on5-98" value="" style="group" vertex="1" connectable="0" parent="tuS8vouwt-BeD0qK5on5-87">
          <mxGeometry x="10" y="30" width="255" height="190" as="geometry" />
        </mxCell>
        <mxCell id="tuS8vouwt-BeD0qK5on5-99" value="VPN Gateway Pod 1" style="rounded=0;whiteSpace=wrap;html=1;verticalAlign=top;fillColor=#fff2cc;strokeColor=#d6b656;" vertex="1" parent="tuS8vouwt-BeD0qK5on5-98">
          <mxGeometry width="255" height="190" as="geometry" />
        </mxCell>
        <mxCell id="tuS8vouwt-BeD0qK5on5-100" value="Primary CNI plugin&lt;br&gt;&lt;br&gt;eth0" style="rounded=0;whiteSpace=wrap;html=1;fillColor=#d5e8d4;strokeColor=#82b366;" vertex="1" parent="tuS8vouwt-BeD0qK5on5-98">
          <mxGeometry x="10" y="130" width="100" height="60" as="geometry" />
        </mxCell>
        <mxCell id="tuS8vouwt-BeD0qK5on5-101" value="Bridge CNI plugin&lt;br&gt;&lt;br&gt;192.168.50.64/24&lt;br&gt;veth: net1" style="rounded=0;whiteSpace=wrap;html=1;fillColor=#f8cecc;strokeColor=#b85450;" vertex="1" parent="tuS8vouwt-BeD0qK5on5-98">
          <mxGeometry x="140" y="130" width="100" height="60" as="geometry" />
        </mxCell>
        <mxCell id="tuS8vouwt-BeD0qK5on5-102" value="gluetun" style="rounded=0;whiteSpace=wrap;html=1;fillColor=#e1d5e7;strokeColor=#9673a6;" vertex="1" parent="tuS8vouwt-BeD0qK5on5-98">
          <mxGeometry x="10" y="30" width="230" height="60" as="geometry" />
        </mxCell>
        <mxCell id="tuS8vouwt-BeD0qK5on5-103" style="edgeStyle=orthogonalEdgeStyle;rounded=0;orthogonalLoop=1;jettySize=auto;html=1;exitX=0.5;exitY=1;exitDx=0;exitDy=0;entryX=0.5;entryY=0;entryDx=0;entryDy=0;endArrow=oval;endFill=1;startArrow=oval;startFill=1;" edge="1" parent="tuS8vouwt-BeD0qK5on5-98" source="tuS8vouwt-BeD0qK5on5-102" target="tuS8vouwt-BeD0qK5on5-100">
          <mxGeometry relative="1" as="geometry" />
        </mxCell>
        <mxCell id="tuS8vouwt-BeD0qK5on5-104" style="edgeStyle=orthogonalEdgeStyle;rounded=0;orthogonalLoop=1;jettySize=auto;html=1;exitX=0.5;exitY=1;exitDx=0;exitDy=0;entryX=0.5;entryY=0;entryDx=0;entryDy=0;endArrow=oval;endFill=1;" edge="1" parent="tuS8vouwt-BeD0qK5on5-98" source="tuS8vouwt-BeD0qK5on5-102" target="tuS8vouwt-BeD0qK5on5-101">
          <mxGeometry relative="1" as="geometry" />
        </mxCell>
        <mxCell id="tuS8vouwt-BeD0qK5on5-105" value="" style="group" vertex="1" connectable="0" parent="tuS8vouwt-BeD0qK5on5-87">
          <mxGeometry x="280" y="30" width="255" height="190" as="geometry" />
        </mxCell>
        <mxCell id="tuS8vouwt-BeD0qK5on5-106" value="VPN Gateway Pod 2" style="rounded=0;whiteSpace=wrap;html=1;verticalAlign=top;fillColor=#fff2cc;strokeColor=#d6b656;" vertex="1" parent="tuS8vouwt-BeD0qK5on5-105">
          <mxGeometry width="255" height="190" as="geometry" />
        </mxCell>
        <mxCell id="tuS8vouwt-BeD0qK5on5-107" value="Primary CNI plugin&lt;br&gt;&lt;br&gt;eth0" style="rounded=0;whiteSpace=wrap;html=1;fillColor=#d5e8d4;strokeColor=#82b366;" vertex="1" parent="tuS8vouwt-BeD0qK5on5-105">
          <mxGeometry x="10" y="130" width="100" height="60" as="geometry" />
        </mxCell>
        <mxCell id="tuS8vouwt-BeD0qK5on5-108" value="Bridge CNI plugin&lt;br&gt;&lt;br&gt;192.168.50.65/24&lt;br&gt;veth: net1" style="rounded=0;whiteSpace=wrap;html=1;fillColor=#f8cecc;strokeColor=#b85450;" vertex="1" parent="tuS8vouwt-BeD0qK5on5-105">
          <mxGeometry x="140" y="130" width="100" height="60" as="geometry" />
        </mxCell>
        <mxCell id="tuS8vouwt-BeD0qK5on5-109" value="gluetun" style="rounded=0;whiteSpace=wrap;html=1;fillColor=#e1d5e7;strokeColor=#9673a6;" vertex="1" parent="tuS8vouwt-BeD0qK5on5-105">
          <mxGeometry x="10" y="30" width="230" height="60" as="geometry" />
        </mxCell>
        <mxCell id="tuS8vouwt-BeD0qK5on5-110" style="edgeStyle=orthogonalEdgeStyle;rounded=0;orthogonalLoop=1;jettySize=auto;html=1;exitX=0.5;exitY=1;exitDx=0;exitDy=0;entryX=0.5;entryY=0;entryDx=0;entryDy=0;endArrow=oval;endFill=1;startArrow=oval;startFill=1;" edge="1" parent="tuS8vouwt-BeD0qK5on5-105" source="tuS8vouwt-BeD0qK5on5-109" target="tuS8vouwt-BeD0qK5on5-107">
          <mxGeometry relative="1" as="geometry" />
        </mxCell>
        <mxCell id="tuS8vouwt-BeD0qK5on5-111" style="edgeStyle=orthogonalEdgeStyle;rounded=0;orthogonalLoop=1;jettySize=auto;html=1;exitX=0.5;exitY=1;exitDx=0;exitDy=0;entryX=0.5;entryY=0;entryDx=0;entryDy=0;endArrow=oval;endFill=1;" edge="1" parent="tuS8vouwt-BeD0qK5on5-105" source="tuS8vouwt-BeD0qK5on5-109" target="tuS8vouwt-BeD0qK5on5-108">
          <mxGeometry relative="1" as="geometry" />
        </mxCell>
        <mxCell id="tuS8vouwt-BeD0qK5on5-112" style="edgeStyle=orthogonalEdgeStyle;rounded=0;orthogonalLoop=1;jettySize=auto;html=1;exitX=0.5;exitY=1;exitDx=0;exitDy=0;endArrow=none;endFill=0;jumpStyle=gap;" edge="1" parent="tuS8vouwt-BeD0qK5on5-105" source="tuS8vouwt-BeD0qK5on5-107">
          <mxGeometry relative="1" as="geometry">
            <mxPoint x="-220" y="210" as="targetPoint" />
            <Array as="points">
              <mxPoint x="60" y="210" />
            </Array>
          </mxGeometry>
        </mxCell>
        <mxCell id="tuS8vouwt-BeD0qK5on5-113" value="Bridge CNI plugin&lt;br&gt;&lt;br&gt;&lt;br&gt;veth: vethABC" style="rounded=0;whiteSpace=wrap;html=1;fillColor=#f8cecc;strokeColor=#b85450;" vertex="1" parent="tuS8vouwt-BeD0qK5on5-87">
          <mxGeometry x="135" y="255" width="100" height="60" as="geometry" />
        </mxCell>
        <mxCell id="tuS8vouwt-BeD0qK5on5-114" style="edgeStyle=orthogonalEdgeStyle;rounded=0;orthogonalLoop=1;jettySize=auto;html=1;exitX=0.5;exitY=1;exitDx=0;exitDy=0;endArrow=oval;endFill=1;startArrow=oval;startFill=1;entryX=0.5;entryY=0;entryDx=0;entryDy=0;" edge="1" parent="tuS8vouwt-BeD0qK5on5-87" source="tuS8vouwt-BeD0qK5on5-108" target="tuS8vouwt-BeD0qK5on5-94">
          <mxGeometry relative="1" as="geometry">
            <mxPoint x="457" y="225" as="sourcePoint" />
            <mxPoint x="440" y="260" as="targetPoint" />
            <Array as="points">
              <mxPoint x="470" y="235" />
              <mxPoint x="495" y="235" />
            </Array>
          </mxGeometry>
        </mxCell>
        <mxCell id="tuS8vouwt-BeD0qK5on5-115" style="edgeStyle=orthogonalEdgeStyle;rounded=0;orthogonalLoop=1;jettySize=auto;html=1;exitX=0.5;exitY=1;exitDx=0;exitDy=0;endArrow=oval;endFill=1;startArrow=oval;startFill=1;entryX=0.475;entryY=-0.005;entryDx=0;entryDy=0;entryPerimeter=0;jumpStyle=arc;" edge="1" parent="tuS8vouwt-BeD0qK5on5-87" source="tuS8vouwt-BeD0qK5on5-101" target="tuS8vouwt-BeD0qK5on5-113">
          <mxGeometry relative="1" as="geometry">
            <mxPoint x="184.8" y="220" as="sourcePoint" />
            <mxPoint x="184.8" y="280" as="targetPoint" />
            <Array as="points">
              <mxPoint x="200" y="235" />
              <mxPoint x="183" y="235" />
            </Array>
          </mxGeometry>
        </mxCell>
        <mxCell id="ZAoUQ8ObvNrSKgbO1jp7-82" style="edgeStyle=orthogonalEdgeStyle;rounded=0;orthogonalLoop=1;jettySize=auto;html=1;exitX=0.5;exitY=1;exitDx=0;exitDy=0;entryX=1;entryY=0.5;entryDx=0;entryDy=0;entryPerimeter=0;endArrow=oval;endFill=1;startArrow=oval;startFill=1;" parent="1" source="tuS8vouwt-BeD0qK5on5-93" target="ZAoUQ8ObvNrSKgbO1jp7-80" edge="1">
          <mxGeometry relative="1" as="geometry">
            <mxPoint x="1218" y="680" as="sourcePoint" />
          </mxGeometry>
        </mxCell>
        <mxCell id="ZAoUQ8ObvNrSKgbO1jp7-81" style="edgeStyle=orthogonalEdgeStyle;rounded=0;orthogonalLoop=1;jettySize=auto;html=1;exitX=0.5;exitY=1;exitDx=0;exitDy=0;entryX=0;entryY=0.5;entryDx=0;entryDy=0;entryPerimeter=0;endArrow=oval;endFill=1;startArrow=oval;startFill=1;" parent="1" source="ZAoUQ8ObvNrSKgbO1jp7-31" target="ZAoUQ8ObvNrSKgbO1jp7-80" edge="1">
          <mxGeometry relative="1" as="geometry" />
        </mxCell>
        <mxCell id="tuS8vouwt-BeD0qK5on5-116" style="edgeStyle=orthogonalEdgeStyle;rounded=0;orthogonalLoop=1;jettySize=auto;html=1;exitX=0.5;exitY=1;exitDx=0;exitDy=0;entryX=0.5;entryY=0;entryDx=0;entryDy=0;entryPerimeter=0;endArrow=oval;endFill=1;startArrow=oval;startFill=1;jumpStyle=arc;jumpSize=10;" edge="1" parent="1" source="tuS8vouwt-BeD0qK5on5-19" target="ZAoUQ8ObvNrSKgbO1jp7-80">
          <mxGeometry relative="1" as="geometry" />
        </mxCell>
      </root>
    </mxGraphModel>
  </diagram>
</mxfile>
